<?xml version="1.0" standalone="no"?>
<!DOCTYPE svg PUBLIC "-//W3C//DTD SVG 20010904//EN"
 "http://www.w3.org/TR/2001/REC-SVG-20010904/DTD/svg10.dtd">
<svg version="1.0" xmlns="http://www.w3.org/2000/svg"
 width="682.000000pt" height="682.000000pt" viewBox="0 0 682.000000 682.000000"
 preserveAspectRatio="xMidYMid meet">
<metadata>
Created by potrace 1.14, written by Peter Selinger 2001-2017
</metadata>
<g transform="translate(0.000000,682.000000) scale(0.100000,-0.100000)"
fill="#000000" stroke="none">
<path d="M6525 6294 c-33 -7 -71 -16 -85 -19 -38 -9 -198 -74 -255 -103 -54
-29 -166 -103 -285 -190 -41 -31 -103 -76 -138 -101 -34 -25 -111 -83 -171
-128 -105 -79 -110 -82 -142 -72 -19 6 -41 12 -49 14 -31 7 -106 26 -125 31
-63 16 -315 25 -315 11 0 -4 -4 -5 -10 -2 -25 16 -137 -33 -265 -116 -38 -25
-94 -59 -122 -75 -29 -16 -53 -32 -53 -36 0 -5 -5 -8 -12 -8 -21 0 -118 -80
-144 -120 -32 -48 -34 -98 -5 -138 20 -28 133 -102 231 -151 43 -21 166 -86
240 -127 63 -34 204 -132 252 -174 103 -90 122 -148 122 -370 0 -141 -6 -203
-35 -350 -13 -65 -67 -230 -82 -247 -5 -7 -7 -13 -4 -13 22 0 -165 -308 -224
-369 -16 -17 -29 -33 -29 -36 0 -14 -188 -191 -270 -255 -25 -19 -47 -37 -50
-40 -11 -11 -129 -90 -202 -133 -99 -60 -304 -164 -358 -182 -3 -1 -18 -7 -34
-14 -42 -17 -197 -69 -226 -75 -14 -3 -63 -14 -110 -25 -142 -32 -247 -44
-410 -44 -103 -1 -252 9 -301 18 -13 3 -40 8 -59 11 -19 3 -71 14 -115 25 -44
11 -89 21 -99 24 -11 2 -49 15 -85 27 -36 12 -68 22 -71 23 -41 5 -366 158
-473 224 -37 22 -70 41 -73 41 -7 0 -67 43 -75 53 -3 5 -8 8 -10 6 -4 -2 -119
70 -129 82 -3 3 -27 21 -55 39 -27 19 -131 97 -230 173 -99 76 -191 146 -203
155 -13 9 -40 30 -60 45 -49 38 -148 84 -202 93 -48 9 -219 10 -260 1 -14 -2
-43 -8 -65 -12 -22 -4 -46 -12 -52 -18 -7 -5 -13 -6 -13 -2 0 4 -7 2 -15 -5
-8 -7 -15 -10 -15 -6 0 12 -173 -84 -219 -121 -50 -42 -101 -91 -101 -99 0 -3
-11 -17 -24 -31 -21 -22 -74 -118 -83 -148 -6 -23 -52 -223 -58 -255 -4 -19
-8 -92 -10 -162 -3 -99 1 -145 16 -215 11 -48 21 -92 22 -98 2 -5 7 -17 12
-25 5 -8 10 -18 10 -21 0 -12 50 -114 58 -117 4 -2 7 -9 7 -15 0 -11 81 -134
115 -175 84 -99 198 -217 274 -280 l34 -29 -93 -23 c-51 -12 -112 -30 -136
-41 -44 -18 -113 -81 -115 -102 0 -7 -2 -21 -4 -32 -10 -48 39 -124 110 -172
31 -21 144 -72 177 -79 10 -2 28 -6 41 -10 23 -5 43 -10 87 -19 14 -3 43 -8
65 -11 22 -3 54 -7 70 -10 17 -3 53 -7 80 -9 28 -2 90 -6 138 -10 49 -4 157
-8 240 -10 111 -2 160 -7 182 -18 162 -83 582 -241 690 -261 24 -5 99 -24 140
-36 42 -13 152 -38 199 -45 21 -3 41 -7 45 -9 3 -2 30 -7 60 -10 29 -4 56 -8
60 -10 5 -4 49 -9 163 -22 20 -2 51 -6 68 -9 88 -15 502 -26 593 -14 l47 5
154 -115 c323 -244 485 -307 629 -248 89 37 183 152 212 262 5 17 9 35 11 40
17 67 24 187 13 248 l-7 38 142 70 c77 38 148 74 156 79 100 60 237 146 245
152 6 5 44 34 85 65 77 57 169 133 230 190 19 18 38 33 43 33 4 0 7 4 7 8 0 5
33 42 73 83 61 62 142 159 257 311 11 14 20 30 20 34 0 4 6 15 14 23 35 40
144 251 198 386 43 106 99 292 113 375 10 60 25 147 30 169 11 58 20 239 19
406 -2 199 -6 275 -29 455 -7 57 -43 286 -51 330 -3 14 -8 41 -10 60 -3 19
-10 52 -15 72 -5 20 -9 40 -8 45 1 4 0 10 -1 13 -2 6 -7 32 -16 90 -4 25 -9
54 -10 65 -2 11 -7 63 -10 115 -7 111 4 162 66 284 34 67 142 240 159 256 3 3
35 43 71 90 36 47 72 94 82 105 9 11 56 67 104 125 48 58 91 107 96 108 4 2 8
10 8 18 0 8 3 14 8 14 4 0 29 28 56 63 27 34 55 67 61 72 19 16 119 167 137
206 21 46 18 126 -6 161 -42 63 -143 82 -271 52z"/>
</g>
</svg>
