<svg xmlns="http://www.w3.org/2000/svg" viewBox="0 0 29.69 20.05"><defs><style>.cls-1{fill:#fff;stroke:#231f20;stroke-miterlimit:10;}</style></defs><g id="Layer_2" data-name="Layer 2"><g id="Layer_1-2" data-name="Layer 1"><path class="cls-1" d="M2.15,12.65s-2.56,4.91-1.3,6.7c.93,1.06,3.54-2.55,3.54-2.55,1,.77,4.59,1.76,5.79,1.92s5.6.3,7.86-1c6.32-3.63,3.44-7.47,6.88-8.16,2.3-.45,5-3.79,4.09-4.12s-3.08,1.35-4.91.91-.61-3.9-2.09-4-1.41,3.79-.84,6.38c.43,2-5.24,1.68-5.24,1.68s3.31-.68,2.66-2.34c-.56-1.43-7.07-.21-7.07-.21S9.45,0,4.77.52-.13,8.77,2.15,12.65Z"/><path class="cls-1" d="M5.92,7a5.18,5.18,0,0,0-3,.16A5.15,5.15,0,0,0,1.05,8,2.23,2.23,0,0,1,2.91,5.56,3.17,3.17,0,0,1,5.92,7Z"/></g></g></svg>